<svg width="190" height="51" viewBox="0 0 190 51" fill="none" xmlns="http://www.w3.org/2000/svg">
<g filter="url(#filter0_d_50_17)">
<rect x="4" y="3" width="182" height="43" rx="10" fill="white"/>
<path d="M30.8125 24H43.1875" stroke="#6B7280" stroke-width="2" stroke-linecap="round" stroke-linejoin="round"/>
<path d="M37 17.8125V30.1875" stroke="#6B7280" stroke-width="2" stroke-linecap="round" stroke-linejoin="round"/>
<path d="M57.2784 30V18.3636H61.5398C62.3655 18.3636 63.0492 18.5 63.5909 18.7727C64.1326 19.0417 64.5379 19.4072 64.8068 19.8693C65.0758 20.3277 65.2102 20.8447 65.2102 21.4205C65.2102 21.9053 65.1212 22.3144 64.9432 22.6477C64.7652 22.9773 64.5265 23.2424 64.2273 23.4432C63.9318 23.6402 63.6061 23.7841 63.25 23.875V23.9886C63.6364 24.0076 64.0133 24.1326 64.3807 24.3636C64.7519 24.5909 65.0587 24.9148 65.3011 25.3352C65.5436 25.7557 65.6648 26.267 65.6648 26.8693C65.6648 27.464 65.5246 27.9981 65.2443 28.4716C64.9678 28.9413 64.5398 29.3144 63.9602 29.5909C63.3807 29.8636 62.6402 30 61.7386 30H57.2784ZM59.0341 28.4943H61.5682C62.4091 28.4943 63.0114 28.3314 63.375 28.0057C63.7386 27.6799 63.9205 27.2727 63.9205 26.7841C63.9205 26.4167 63.8277 26.0795 63.642 25.7727C63.4564 25.4659 63.1913 25.2216 62.8466 25.0398C62.5057 24.858 62.1004 24.767 61.6307 24.767H59.0341V28.4943ZM59.0341 23.3977H61.3864C61.7803 23.3977 62.1345 23.322 62.4489 23.1705C62.767 23.0189 63.0189 22.8068 63.2045 22.5341C63.3939 22.2576 63.4886 21.9318 63.4886 21.5568C63.4886 21.0758 63.3201 20.6723 62.983 20.3466C62.6458 20.0208 62.1288 19.858 61.4318 19.858H59.0341V23.3977ZM71.2869 30.1761C70.4688 30.1761 69.7547 29.9886 69.1449 29.6136C68.535 29.2386 68.0616 28.714 67.7244 28.0398C67.3873 27.3655 67.2188 26.5777 67.2188 25.6761C67.2188 24.7708 67.3873 23.9792 67.7244 23.3011C68.0616 22.6231 68.535 22.0966 69.1449 21.7216C69.7547 21.3466 70.4688 21.1591 71.2869 21.1591C72.1051 21.1591 72.8191 21.3466 73.429 21.7216C74.0388 22.0966 74.5123 22.6231 74.8494 23.3011C75.1866 23.9792 75.3551 24.7708 75.3551 25.6761C75.3551 26.5777 75.1866 27.3655 74.8494 28.0398C74.5123 28.714 74.0388 29.2386 73.429 29.6136C72.8191 29.9886 72.1051 30.1761 71.2869 30.1761ZM71.2926 28.75C71.8229 28.75 72.2623 28.6098 72.6108 28.3295C72.9593 28.0492 73.2169 27.6761 73.3835 27.2102C73.554 26.7443 73.6392 26.2311 73.6392 25.6705C73.6392 25.1136 73.554 24.6023 73.3835 24.1364C73.2169 23.6667 72.9593 23.2898 72.6108 23.0057C72.2623 22.7216 71.8229 22.5795 71.2926 22.5795C70.7585 22.5795 70.3153 22.7216 69.9631 23.0057C69.6146 23.2898 69.3551 23.6667 69.1847 24.1364C69.018 24.6023 68.9347 25.1136 68.9347 25.6705C68.9347 26.2311 69.018 26.7443 69.1847 27.2102C69.3551 27.6761 69.6146 28.0492 69.9631 28.3295C70.3153 28.6098 70.7585 28.75 71.2926 28.75ZM80.9276 30.1761C80.1094 30.1761 79.3954 29.9886 78.7855 29.6136C78.1757 29.2386 77.7022 28.714 77.3651 28.0398C77.0279 27.3655 76.8594 26.5777 76.8594 25.6761C76.8594 24.7708 77.0279 23.9792 77.3651 23.3011C77.7022 22.6231 78.1757 22.0966 78.7855 21.7216C79.3954 21.3466 80.1094 21.1591 80.9276 21.1591C81.7457 21.1591 82.4598 21.3466 83.0696 21.7216C83.6795 22.0966 84.1529 22.6231 84.4901 23.3011C84.8272 23.9792 84.9957 24.7708 84.9957 25.6761C84.9957 26.5777 84.8272 27.3655 84.4901 28.0398C84.1529 28.714 83.6795 29.2386 83.0696 29.6136C82.4598 29.9886 81.7457 30.1761 80.9276 30.1761ZM80.9332 28.75C81.4635 28.75 81.9029 28.6098 82.2514 28.3295C82.5999 28.0492 82.8575 27.6761 83.0241 27.2102C83.1946 26.7443 83.2798 26.2311 83.2798 25.6705C83.2798 25.1136 83.1946 24.6023 83.0241 24.1364C82.8575 23.6667 82.5999 23.2898 82.2514 23.0057C81.9029 22.7216 81.4635 22.5795 80.9332 22.5795C80.3991 22.5795 79.956 22.7216 79.6037 23.0057C79.2552 23.2898 78.9957 23.6667 78.8253 24.1364C78.6586 24.6023 78.5753 25.1136 78.5753 25.6705C78.5753 26.2311 78.6586 26.7443 78.8253 27.2102C78.9957 27.6761 79.2552 28.0492 79.6037 28.3295C79.956 28.6098 80.3991 28.75 80.9332 28.75ZM88.4545 27.0398L88.4432 24.9659H88.7386L92.2159 21.2727H94.25L90.2841 25.4773H90.017L88.4545 27.0398ZM86.892 30V18.3636H88.5909V30H86.892ZM92.4034 30L89.2784 25.8523L90.4489 24.6648L94.4886 30H92.4034ZM95.7983 30V21.2727H97.4972V30H95.7983ZM96.6562 19.9261C96.3608 19.9261 96.107 19.8277 95.8949 19.6307C95.6866 19.4299 95.5824 19.1913 95.5824 18.9148C95.5824 18.6345 95.6866 18.3958 95.8949 18.1989C96.107 17.9981 96.3608 17.8977 96.6562 17.8977C96.9517 17.8977 97.2036 17.9981 97.4119 18.1989C97.6241 18.3958 97.7301 18.6345 97.7301 18.9148C97.7301 19.1913 97.6241 19.4299 97.4119 19.6307C97.2036 19.8277 96.9517 19.9261 96.6562 19.9261ZM101.482 24.8182V30H99.7827V21.2727H101.413V22.6932H101.521C101.722 22.2311 102.036 21.8598 102.464 21.5795C102.896 21.2992 103.44 21.1591 104.095 21.1591C104.69 21.1591 105.211 21.2841 105.658 21.5341C106.105 21.7803 106.451 22.1477 106.697 22.6364C106.944 23.125 107.067 23.7292 107.067 24.4489V30H105.368V24.6534C105.368 24.0208 105.203 23.5265 104.874 23.1705C104.544 22.8106 104.091 22.6307 103.516 22.6307C103.122 22.6307 102.771 22.7159 102.464 22.8864C102.161 23.0568 101.921 23.3068 101.743 23.6364C101.569 23.9621 101.482 24.3561 101.482 24.8182ZM113.004 33.4545C112.311 33.4545 111.714 33.3636 111.214 33.1818C110.718 33 110.313 32.7595 109.999 32.4602C109.684 32.161 109.449 31.8333 109.294 31.4773L110.754 30.875C110.857 31.0417 110.993 31.2178 111.163 31.4034C111.338 31.5928 111.572 31.7538 111.868 31.8864C112.167 32.0189 112.552 32.0852 113.021 32.0852C113.665 32.0852 114.197 31.928 114.618 31.6136C115.038 31.303 115.249 30.8068 115.249 30.125V28.4091H115.141C115.038 28.5947 114.891 28.8011 114.697 29.0284C114.508 29.2557 114.247 29.4527 113.913 29.6193C113.58 29.786 113.146 29.8693 112.612 29.8693C111.923 29.8693 111.302 29.7083 110.749 29.3864C110.199 29.0606 109.764 28.5814 109.442 27.9489C109.124 27.3125 108.964 26.5303 108.964 25.6023C108.964 24.6742 109.122 23.8788 109.436 23.2159C109.754 22.553 110.19 22.0455 110.743 21.6932C111.296 21.3371 111.923 21.1591 112.624 21.1591C113.165 21.1591 113.603 21.25 113.936 21.4318C114.269 21.6098 114.529 21.8182 114.714 22.0568C114.904 22.2955 115.05 22.5057 115.152 22.6875H115.277V21.2727H116.942V30.1932C116.942 30.9432 116.768 31.5587 116.419 32.0398C116.071 32.5208 115.599 32.8769 115.004 33.108C114.413 33.339 113.747 33.4545 113.004 33.4545ZM112.987 28.4602C113.476 28.4602 113.889 28.3466 114.226 28.1193C114.567 27.8883 114.824 27.5587 114.999 27.1307C115.177 26.6989 115.266 26.1818 115.266 25.5795C115.266 24.9924 115.179 24.4754 115.004 24.0284C114.83 23.5814 114.574 23.233 114.237 22.983C113.9 22.7292 113.483 22.6023 112.987 22.6023C112.476 22.6023 112.05 22.7348 111.709 23C111.368 23.2614 111.11 23.6174 110.936 24.0682C110.766 24.5189 110.68 25.0227 110.68 25.5795C110.68 26.1515 110.768 26.6534 110.942 27.0852C111.116 27.517 111.374 27.8542 111.714 28.0966C112.059 28.339 112.483 28.4602 112.987 28.4602ZM123.455 30V21.2727H125.085V22.6932H125.193C125.375 22.2121 125.672 21.8371 126.085 21.5682C126.498 21.2955 126.992 21.1591 127.568 21.1591C128.152 21.1591 128.64 21.2955 129.034 21.5682C129.432 21.8409 129.725 22.2159 129.915 22.6932H130.006C130.214 22.2273 130.545 21.8561 131 21.5795C131.455 21.2992 131.996 21.1591 132.625 21.1591C133.417 21.1591 134.062 21.4072 134.562 21.9034C135.066 22.3996 135.318 23.1477 135.318 24.1477V30H133.619V24.3068C133.619 23.7159 133.458 23.2879 133.136 23.0227C132.814 22.7576 132.43 22.625 131.983 22.625C131.43 22.625 131 22.7955 130.693 23.1364C130.386 23.4735 130.233 23.9072 130.233 24.4375V30H128.54V24.1989C128.54 23.7254 128.392 23.3447 128.097 23.0568C127.801 22.7689 127.417 22.625 126.943 22.625C126.621 22.625 126.324 22.7102 126.051 22.8807C125.782 23.0473 125.564 23.2803 125.398 23.5795C125.235 23.8788 125.153 24.2254 125.153 24.6193V30H123.455ZM141.271 30.1761C140.453 30.1761 139.739 29.9886 139.129 29.6136C138.519 29.2386 138.046 28.714 137.709 28.0398C137.372 27.3655 137.203 26.5777 137.203 25.6761C137.203 24.7708 137.372 23.9792 137.709 23.3011C138.046 22.6231 138.519 22.0966 139.129 21.7216C139.739 21.3466 140.453 21.1591 141.271 21.1591C142.089 21.1591 142.804 21.3466 143.413 21.7216C144.023 22.0966 144.497 22.6231 144.834 23.3011C145.171 23.9792 145.339 24.7708 145.339 25.6761C145.339 26.5777 145.171 27.3655 144.834 28.0398C144.497 28.714 144.023 29.2386 143.413 29.6136C142.804 29.9886 142.089 30.1761 141.271 30.1761ZM141.277 28.75C141.807 28.75 142.247 28.6098 142.595 28.3295C142.944 28.0492 143.201 27.6761 143.368 27.2102C143.538 26.7443 143.624 26.2311 143.624 25.6705C143.624 25.1136 143.538 24.6023 143.368 24.1364C143.201 23.6667 142.944 23.2898 142.595 23.0057C142.247 22.7216 141.807 22.5795 141.277 22.5795C140.743 22.5795 140.3 22.7216 139.947 23.0057C139.599 23.2898 139.339 23.6667 139.169 24.1364C139.002 24.6023 138.919 25.1136 138.919 25.6705C138.919 26.2311 139.002 26.7443 139.169 27.2102C139.339 27.6761 139.599 28.0492 139.947 28.3295C140.3 28.6098 140.743 28.75 141.277 28.75ZM147.236 30V21.2727H148.878V22.6591H148.969C149.128 22.1894 149.408 21.8201 149.81 21.5511C150.215 21.2784 150.673 21.142 151.185 21.142C151.291 21.142 151.416 21.1458 151.56 21.1534C151.707 21.161 151.823 21.1705 151.906 21.1818V22.8068C151.838 22.7879 151.717 22.767 151.543 22.7443C151.368 22.7178 151.194 22.7045 151.02 22.7045C150.618 22.7045 150.26 22.7898 149.946 22.9602C149.635 23.1269 149.389 23.3598 149.207 23.6591C149.026 23.9545 148.935 24.2917 148.935 24.6705V30H147.236ZM156.825 30.1761C155.965 30.1761 155.225 29.9924 154.604 29.625C153.986 29.2538 153.509 28.733 153.172 28.0625C152.839 27.3883 152.672 26.5985 152.672 25.6932C152.672 24.7992 152.839 24.0114 153.172 23.3295C153.509 22.6477 153.979 22.1155 154.581 21.733C155.187 21.3504 155.895 21.1591 156.706 21.1591C157.198 21.1591 157.676 21.2405 158.138 21.4034C158.6 21.5663 159.015 21.822 159.382 22.1705C159.75 22.5189 160.039 22.9716 160.251 23.5284C160.464 24.0814 160.57 24.7538 160.57 25.5455V26.1477H153.632V24.875H158.905C158.905 24.428 158.814 24.0322 158.632 23.6875C158.45 23.339 158.195 23.0644 157.865 22.8636C157.539 22.6629 157.157 22.5625 156.717 22.5625C156.24 22.5625 155.823 22.6799 155.467 22.9148C155.115 23.1458 154.842 23.4489 154.649 23.8239C154.46 24.1951 154.365 24.5985 154.365 25.0341V26.0284C154.365 26.6117 154.467 27.108 154.672 27.517C154.88 27.9261 155.17 28.2386 155.541 28.4545C155.912 28.6667 156.346 28.7727 156.842 28.7727C157.164 28.7727 157.458 28.7273 157.723 28.6364C157.988 28.5417 158.217 28.4015 158.411 28.2159C158.604 28.0303 158.751 27.8011 158.854 27.5284L160.462 27.8182C160.333 28.2917 160.102 28.7064 159.768 29.0625C159.439 29.4148 159.024 29.6894 158.524 29.8864C158.028 30.0795 157.462 30.1761 156.825 30.1761Z" fill="#6B7280"/>
</g>
<defs>
<filter id="filter0_d_50_17" x="0" y="0" width="190" height="51" filterUnits="userSpaceOnUse" color-interpolation-filters="sRGB">
<feFlood flood-opacity="0" result="BackgroundImageFix"/>
<feColorMatrix in="SourceAlpha" type="matrix" values="0 0 0 0 0 0 0 0 0 0 0 0 0 0 0 0 0 0 127 0" result="hardAlpha"/>
<feOffset dy="1"/>
<feGaussianBlur stdDeviation="2"/>
<feColorMatrix type="matrix" values="0 0 0 0 0.133333 0 0 0 0 0.133333 0 0 0 0 0.133333 0 0 0 0.06 0"/>
<feBlend mode="normal" in2="BackgroundImageFix" result="effect1_dropShadow_50_17"/>
<feBlend mode="normal" in="SourceGraphic" in2="effect1_dropShadow_50_17" result="shape"/>
</filter>
</defs>
</svg>
