<svg width="54" height="15" viewBox="0 0 54 15" fill="none" xmlns="http://www.w3.org/2000/svg">
<path d="M48 3L53 8L48 13" stroke="#32B768" stroke-width="1.5" stroke-linecap="round" stroke-linejoin="round"/>
<path d="M5.60369 5.67188C5.56392 5.29972 5.39631 5.00994 5.10085 4.80256C4.80824 4.59517 4.42756 4.49148 3.95881 4.49148C3.62926 4.49148 3.34659 4.54119 3.1108 4.64062C2.875 4.74006 2.6946 4.875 2.5696 5.04545C2.4446 5.21591 2.38068 5.41051 2.37784 5.62926C2.37784 5.81108 2.41903 5.96875 2.50142 6.10227C2.58665 6.2358 2.7017 6.34943 2.84659 6.44318C2.99148 6.53409 3.15199 6.6108 3.32812 6.6733C3.50426 6.7358 3.68182 6.78835 3.8608 6.83097L4.67898 7.03551C5.00852 7.11222 5.32528 7.21591 5.62926 7.34659C5.93608 7.47727 6.21023 7.64205 6.4517 7.84091C6.69602 8.03977 6.8892 8.27983 7.03125 8.56108C7.1733 8.84233 7.24432 9.17187 7.24432 9.54972C7.24432 10.0611 7.11364 10.5114 6.85227 10.9006C6.59091 11.2869 6.21307 11.5895 5.71875 11.8082C5.22727 12.0241 4.6321 12.1321 3.93324 12.1321C3.25426 12.1321 2.66477 12.027 2.16477 11.8168C1.66761 11.6065 1.27841 11.2997 0.997159 10.8963C0.71875 10.4929 0.568182 10.0014 0.545455 9.42188H2.10085C2.12358 9.72585 2.21733 9.97869 2.3821 10.1804C2.54688 10.3821 2.76136 10.5327 3.02557 10.6321C3.29261 10.7315 3.59091 10.7812 3.92045 10.7812C4.2642 10.7812 4.56534 10.7301 4.82386 10.6278C5.08523 10.5227 5.28977 10.3778 5.4375 10.1932C5.58523 10.0057 5.66051 9.78693 5.66335 9.53693C5.66051 9.30966 5.59375 9.12216 5.46307 8.97443C5.33239 8.82386 5.14915 8.69886 4.91335 8.59943C4.6804 8.49716 4.40767 8.40625 4.09517 8.3267L3.10227 8.07102C2.38352 7.88636 1.81534 7.60653 1.39773 7.23153C0.982955 6.85369 0.775568 6.35227 0.775568 5.72727C0.775568 5.21307 0.914773 4.76278 1.19318 4.37642C1.47443 3.99006 1.85653 3.69034 2.33949 3.47727C2.82244 3.26136 3.36932 3.15341 3.98011 3.15341C4.59943 3.15341 5.14205 3.26136 5.60795 3.47727C6.0767 3.69034 6.4446 3.98722 6.71165 4.3679C6.97869 4.74574 7.11648 5.1804 7.125 5.67188H5.60369ZM11.4833 12.1278C10.8271 12.1278 10.2603 11.9915 9.78303 11.7188C9.30859 11.4432 8.94354 11.054 8.68786 10.5511C8.43217 10.0455 8.30433 9.45028 8.30433 8.76562C8.30433 8.09233 8.43217 7.50142 8.68786 6.9929C8.94638 6.48153 9.30717 6.08381 9.77024 5.79972C10.2333 5.51278 10.7773 5.36932 11.4023 5.36932C11.8058 5.36932 12.1864 5.43466 12.5444 5.56534C12.9052 5.69318 13.2234 5.89205 13.4989 6.16193C13.7773 6.43182 13.9961 6.77557 14.1552 7.19318C14.3143 7.60795 14.3938 8.10227 14.3938 8.67614V9.14915H9.02876V8.10938H12.9151C12.9123 7.81392 12.8484 7.55114 12.7234 7.32102C12.5984 7.08807 12.4237 6.90483 12.1992 6.77131C11.9776 6.63778 11.7191 6.57102 11.4237 6.57102C11.1083 6.57102 10.8313 6.64773 10.5927 6.80114C10.354 6.9517 10.168 7.15057 10.0344 7.39773C9.90376 7.64205 9.837 7.91051 9.83416 8.20312V9.1108C9.83416 9.49148 9.90376 9.81818 10.043 10.0909C10.1822 10.3608 10.3768 10.5682 10.6268 10.7131C10.8768 10.8551 11.1694 10.9261 11.5046 10.9261C11.729 10.9261 11.9322 10.8949 12.114 10.8324C12.2958 10.767 12.4535 10.6719 12.587 10.5469C12.7205 10.4219 12.8214 10.267 12.8896 10.0824L14.3299 10.2443C14.239 10.625 14.0657 10.9574 13.81 11.2415C13.5572 11.5227 13.2333 11.7415 12.8384 11.8977C12.4435 12.0511 11.9918 12.1278 11.4833 12.1278ZM18.5966 12.1278C17.9403 12.1278 17.3736 11.9915 16.8963 11.7188C16.4219 11.4432 16.0568 11.054 15.8011 10.5511C15.5455 10.0455 15.4176 9.45028 15.4176 8.76562C15.4176 8.09233 15.5455 7.50142 15.8011 6.9929C16.0597 6.48153 16.4205 6.08381 16.8835 5.79972C17.3466 5.51278 17.8906 5.36932 18.5156 5.36932C18.919 5.36932 19.2997 5.43466 19.6577 5.56534C20.0185 5.69318 20.3366 5.89205 20.6122 6.16193C20.8906 6.43182 21.1094 6.77557 21.2685 7.19318C21.4276 7.60795 21.5071 8.10227 21.5071 8.67614V9.14915H16.142V8.10938H20.0284C20.0256 7.81392 19.9616 7.55114 19.8366 7.32102C19.7116 7.08807 19.5369 6.90483 19.3125 6.77131C19.0909 6.63778 18.8324 6.57102 18.5369 6.57102C18.2216 6.57102 17.9446 6.64773 17.706 6.80114C17.4673 6.9517 17.2813 7.15057 17.1477 7.39773C17.017 7.64205 16.9503 7.91051 16.9474 8.20312V9.1108C16.9474 9.49148 17.017 9.81818 17.1562 10.0909C17.2955 10.3608 17.4901 10.5682 17.7401 10.7131C17.9901 10.8551 18.2827 10.9261 18.6179 10.9261C18.8423 10.9261 19.0455 10.8949 19.2273 10.8324C19.4091 10.767 19.5668 10.6719 19.7003 10.5469C19.8338 10.4219 19.9347 10.267 20.0028 10.0824L21.4432 10.2443C21.3523 10.625 21.179 10.9574 20.9233 11.2415C20.6705 11.5227 20.3466 11.7415 19.9517 11.8977C19.5568 12.0511 19.1051 12.1278 18.5966 12.1278ZM26.9776 12H25.2901L28.3626 3.27273H30.3143L33.391 12H31.7035L29.3725 5.0625H29.3043L26.9776 12ZM27.033 8.57812H31.6353V9.84801H27.033V8.57812ZM36.0149 3.27273V12H34.4723V3.27273H36.0149ZM39.1438 3.27273V12H37.6012V3.27273H39.1438Z" fill="#32B768"/>
</svg>
