<svg width="52" height="36" viewBox="0 0 52 36" fill="none" xmlns="http://www.w3.org/2000/svg">
<path d="M5.71875 15.5653C5.6733 15.1619 5.4858 14.8494 5.15625 14.6278C4.8267 14.4034 4.41193 14.2912 3.91193 14.2912C3.55398 14.2912 3.24432 14.348 2.98295 14.4616C2.72159 14.5724 2.51847 14.7259 2.37358 14.9219C2.23153 15.1151 2.16051 15.3352 2.16051 15.5824C2.16051 15.7898 2.20881 15.9687 2.3054 16.1193C2.40483 16.2699 2.53409 16.3963 2.69318 16.4986C2.85511 16.598 3.02841 16.6818 3.21307 16.75C3.39773 16.8153 3.57528 16.8693 3.74574 16.9119L4.59801 17.1335C4.87642 17.2017 5.16193 17.294 5.45455 17.4105C5.74716 17.527 6.01847 17.6804 6.26847 17.8707C6.51847 18.0611 6.72017 18.2969 6.87358 18.5781C7.02983 18.8594 7.10795 19.196 7.10795 19.5881C7.10795 20.0824 6.98011 20.5213 6.72443 20.9048C6.47159 21.2884 6.10369 21.5909 5.62074 21.8125C5.14063 22.0341 4.55966 22.1449 3.87784 22.1449C3.22443 22.1449 2.65909 22.0412 2.18182 21.8338C1.70455 21.6264 1.33097 21.3324 1.06108 20.9517C0.791193 20.5682 0.642045 20.1136 0.613636 19.5881H1.93466C1.96023 19.9034 2.0625 20.1662 2.24148 20.3764C2.4233 20.5838 2.65483 20.7386 2.93608 20.8409C3.22017 20.9403 3.53125 20.9901 3.86932 20.9901C4.24148 20.9901 4.57244 20.9318 4.86222 20.8153C5.15483 20.696 5.38494 20.5312 5.55256 20.321C5.72017 20.108 5.80398 19.8594 5.80398 19.5753C5.80398 19.3168 5.73011 19.1051 5.58239 18.9403C5.4375 18.7756 5.24006 18.6392 4.99006 18.5312C4.7429 18.4233 4.46307 18.3281 4.15057 18.2457L3.11932 17.9645C2.42045 17.7741 1.86648 17.4943 1.45739 17.125C1.05114 16.7557 0.848011 16.267 0.848011 15.6591C0.848011 15.1562 0.984375 14.7173 1.2571 14.3423C1.52983 13.9673 1.89915 13.6761 2.36506 13.4688C2.83097 13.2585 3.35653 13.1534 3.94176 13.1534C4.53267 13.1534 5.05398 13.2571 5.50568 13.4645C5.96023 13.6719 6.31818 13.9574 6.57955 14.321C6.84091 14.6818 6.97727 15.0966 6.98864 15.5653H5.71875ZM11.4002 22.1321C10.7553 22.1321 10.1999 21.9943 9.73402 21.7188C9.27095 21.4403 8.913 21.0497 8.66016 20.5469C8.41016 20.0412 8.28516 19.4489 8.28516 18.7699C8.28516 18.0994 8.41016 17.5085 8.66016 16.9972C8.913 16.4858 9.26527 16.0866 9.71697 15.7997C10.1715 15.5128 10.7028 15.3693 11.3107 15.3693C11.68 15.3693 12.038 15.4304 12.3846 15.5526C12.7312 15.6747 13.0423 15.8665 13.3178 16.1278C13.5934 16.3892 13.8107 16.7287 13.9698 17.1463C14.1289 17.5611 14.2085 18.0653 14.2085 18.6591V19.1108H9.00533V18.1562H12.9599C12.9599 17.821 12.8917 17.5241 12.7553 17.2656C12.619 17.0043 12.4272 16.7983 12.18 16.6477C11.9357 16.4972 11.6488 16.4219 11.3192 16.4219C10.9613 16.4219 10.6488 16.5099 10.3817 16.6861C10.1175 16.8594 9.913 17.0866 9.76811 17.3679C9.62607 17.6463 9.55504 17.9489 9.55504 18.2756V19.0213C9.55504 19.4588 9.63175 19.831 9.78516 20.1378C9.94141 20.4446 10.1587 20.679 10.4371 20.8409C10.7156 21 11.0408 21.0795 11.413 21.0795C11.6545 21.0795 11.8746 21.0455 12.0735 20.9773C12.2724 20.9062 12.4442 20.8011 12.5891 20.6619C12.734 20.5227 12.8448 20.3509 12.9215 20.1463L14.1275 20.3636C14.0309 20.7187 13.8576 21.0298 13.6076 21.2969C13.3604 21.5611 13.0494 21.767 12.6744 21.9148C12.3022 22.0597 11.8775 22.1321 11.4002 22.1321ZM18.4432 22.1321C17.7983 22.1321 17.2429 21.9943 16.777 21.7188C16.3139 21.4403 15.956 21.0497 15.7031 20.5469C15.4531 20.0412 15.3281 19.4489 15.3281 18.7699C15.3281 18.0994 15.4531 17.5085 15.7031 16.9972C15.956 16.4858 16.3082 16.0866 16.7599 15.7997C17.2145 15.5128 17.7457 15.3693 18.3537 15.3693C18.723 15.3693 19.081 15.4304 19.4276 15.5526C19.7741 15.6747 20.0852 15.8665 20.3608 16.1278C20.6364 16.3892 20.8537 16.7287 21.0128 17.1463C21.1719 17.5611 21.2514 18.0653 21.2514 18.6591V19.1108H16.0483V18.1562H20.0028C20.0028 17.821 19.9347 17.5241 19.7983 17.2656C19.6619 17.0043 19.4702 16.7983 19.223 16.6477C18.9787 16.4972 18.6918 16.4219 18.3622 16.4219C18.0043 16.4219 17.6918 16.5099 17.4247 16.6861C17.1605 16.8594 16.956 17.0866 16.8111 17.3679C16.669 17.6463 16.598 17.9489 16.598 18.2756V19.0213C16.598 19.4588 16.6747 19.831 16.8281 20.1378C16.9844 20.4446 17.2017 20.679 17.4801 20.8409C17.7585 21 18.0838 21.0795 18.456 21.0795C18.6974 21.0795 18.9176 21.0455 19.1165 20.9773C19.3153 20.9062 19.4872 20.8011 19.6321 20.6619C19.777 20.5227 19.8878 20.3509 19.9645 20.1463L21.1705 20.3636C21.0739 20.7187 20.9006 21.0298 20.6506 21.2969C20.4034 21.5611 20.0923 21.767 19.7173 21.9148C19.3452 22.0597 18.9205 22.1321 18.4432 22.1321ZM26.6804 22H25.2827L28.4233 13.2727H29.9446L33.0852 22H31.6875L29.2202 14.858H29.152L26.6804 22ZM26.9148 18.5824H31.4489V19.6903H26.9148V18.5824ZM35.5174 13.2727V22H34.2433V13.2727H35.5174ZM38.5057 13.2727V22H37.2315V13.2727H38.5057Z" fill="#6B7280"/>
<path d="M46 13L51 17.375L46 21.75" stroke="#89909E" stroke-width="1.5" stroke-linecap="round" stroke-linejoin="round"/>
</svg>
