<svg width="14" height="14" viewBox="0 0 14 14" fill="none" xmlns="http://www.w3.org/2000/svg">
<path d="M7.66671 6.33325V2.99992C7.66671 2.82311 7.59647 2.65354 7.47145 2.52851C7.34642 2.40349 7.17685 2.33325 7.00004 2.33325C6.82323 2.33325 6.65366 2.40349 6.52864 2.52851C6.40361 2.65354 6.33337 2.82311 6.33337 2.99992V6.99992C6.33337 7.17673 6.40361 7.3463 6.52864 7.47132C6.65366 7.59635 6.82323 7.66659 7.00004 7.66659H10.3334C10.5102 7.66659 10.6798 7.59635 10.8048 7.47132C10.9298 7.3463 11 7.17673 11 6.99992C11 6.82311 10.9298 6.65354 10.8048 6.52851C10.6798 6.40349 10.5102 6.33325 10.3334 6.33325H7.66671ZM7.00004 13.6666C3.31804 13.6666 0.333374 10.6819 0.333374 6.99992C0.333374 3.31792 3.31804 0.333252 7.00004 0.333252C10.682 0.333252 13.6667 3.31792 13.6667 6.99992C13.6667 10.6819 10.682 13.6666 7.00004 13.6666Z" fill="#32B768"/>
</svg>
